<svg width="550" height="52" viewBox="0 0 550 52" fill="none" xmlns="http://www.w3.org/2000/svg">
<path d="M15.6709 39L5.31934 9.19043H5.12402C5.40072 13.6175 5.53906 17.7679 5.53906 21.6416V39H0.241211V3.30664H8.46875L18.3809 31.7002H18.5273L28.7324 3.30664H36.9844V39H31.3691V21.3486C31.3691 19.5745 31.4098 17.2633 31.4912 14.415C31.5889 11.5667 31.6702 9.84147 31.7354 9.23926H31.54L20.8223 39H15.6709ZM69.7236 25.4502C69.7236 29.861 68.5924 33.3034 66.3301 35.7773C64.0677 38.2513 60.9183 39.4883 56.8818 39.4883C54.359 39.4883 52.1292 38.9186 50.1924 37.7793C48.2555 36.64 46.7663 35.0042 45.7246 32.8721C44.6829 30.7399 44.1621 28.266 44.1621 25.4502C44.1621 21.0719 45.2852 17.654 47.5312 15.1963C49.7773 12.7386 52.943 11.5098 57.0283 11.5098C60.9346 11.5098 64.027 12.7712 66.3057 15.2939C68.5843 17.8005 69.7236 21.1859 69.7236 25.4502ZM50.0703 25.4502C50.0703 31.6839 52.3734 34.8008 56.9795 34.8008C61.5368 34.8008 63.8154 31.6839 63.8154 25.4502C63.8154 19.2816 61.5205 16.1973 56.9307 16.1973C54.5218 16.1973 52.7721 16.9948 51.6816 18.5898C50.6074 20.1849 50.0703 22.4717 50.0703 25.4502ZM90.0361 11.5098C91.1917 11.5098 92.1439 11.5911 92.8926 11.7539L92.3311 17.1006C91.5173 16.9053 90.6709 16.8076 89.792 16.8076C87.4971 16.8076 85.6335 17.5563 84.2012 19.0537C82.7852 20.5511 82.0771 22.4961 82.0771 24.8887V39H76.3398V11.998H80.832L81.5889 16.7588H81.8818C82.777 15.1475 83.9408 13.8698 85.373 12.9258C86.8216 11.9818 88.376 11.5098 90.0361 11.5098ZM109.714 39.4883C105.515 39.4883 102.227 38.2676 99.8506 35.8262C97.4906 33.3685 96.3105 29.9912 96.3105 25.6943C96.3105 21.2835 97.4092 17.8167 99.6064 15.2939C101.804 12.7712 104.823 11.5098 108.664 11.5098C112.229 11.5098 115.044 12.5921 117.111 14.7568C119.178 16.9215 120.212 19.9001 120.212 23.6924V26.793H102.219C102.3 29.4134 103.008 31.4316 104.343 32.8477C105.677 34.2474 107.557 34.9473 109.982 34.9473C111.577 34.9473 113.059 34.8008 114.426 34.5078C115.809 34.1986 117.29 33.694 118.869 32.9941V37.6572C117.469 38.3245 116.053 38.7965 114.621 39.0732C113.189 39.3499 111.553 39.4883 109.714 39.4883ZM108.664 15.8555C106.841 15.8555 105.376 16.4333 104.27 17.5889C103.179 18.7445 102.528 20.429 102.316 22.6426H114.572C114.54 20.4128 114.003 18.7282 112.961 17.5889C111.919 16.4333 110.487 15.8555 108.664 15.8555ZM150.412 34.8984C152.821 34.8984 154.546 34.2067 155.588 32.8232C156.646 31.4235 157.175 29.3158 157.175 26.5V25.5967C157.175 22.2601 156.63 19.8594 155.539 18.3945C154.465 16.9297 152.723 16.1973 150.314 16.1973C148.264 16.1973 146.701 17.0111 145.627 18.6387C144.553 20.2663 144.016 22.6019 144.016 25.6455C144.016 31.8141 146.148 34.8984 150.412 34.8984ZM148.776 39.4883C145.44 39.4883 142.827 38.2676 140.939 35.8262C139.051 33.3685 138.107 29.9424 138.107 25.5479C138.107 21.1533 139.068 17.7191 140.988 15.2451C142.909 12.7549 145.554 11.5098 148.923 11.5098C150.616 11.5098 152.129 11.8271 153.464 12.4619C154.815 13.0804 156.019 14.1058 157.077 15.5381H157.272L157.907 11.998H162.668V51.0117H156.906V39.5615C156.906 38.8454 156.939 38.0885 157.004 37.291C157.069 36.4935 157.126 35.8831 157.175 35.46H156.857C155.165 38.1455 152.471 39.4883 148.776 39.4883ZM189.914 39L189.108 35.46H188.815C188.018 36.7132 186.879 37.6979 185.397 38.4141C183.933 39.1302 182.256 39.4883 180.368 39.4883C177.097 39.4883 174.655 38.6745 173.044 37.0469C171.433 35.4193 170.627 32.9535 170.627 29.6494V11.998H176.413V28.6484C176.413 30.7155 176.836 32.2699 177.683 33.3115C178.529 34.3369 179.855 34.8496 181.662 34.8496C184.071 34.8496 185.837 34.1335 186.96 32.7012C188.099 31.2526 188.669 28.8356 188.669 25.4502V11.998H194.431V39H189.914ZM208.347 39H202.609V11.998H208.347V39ZM202.268 4.84473C202.268 3.81934 202.544 3.02995 203.098 2.47656C203.667 1.92318 204.473 1.64648 205.515 1.64648C206.524 1.64648 207.305 1.92318 207.858 2.47656C208.428 3.02995 208.713 3.81934 208.713 4.84473C208.713 5.82129 208.428 6.5944 207.858 7.16406C207.305 7.71745 206.524 7.99414 205.515 7.99414C204.473 7.99414 203.667 7.71745 203.098 7.16406C202.544 6.5944 202.268 5.82129 202.268 4.84473ZM230.271 11.5098C231.426 11.5098 232.378 11.5911 233.127 11.7539L232.565 17.1006C231.752 16.9053 230.905 16.8076 230.026 16.8076C227.731 16.8076 225.868 17.5563 224.436 19.0537C223.02 20.5511 222.312 22.4961 222.312 24.8887V39H216.574V11.998H221.066L221.823 16.7588H222.116C223.011 15.1475 224.175 13.8698 225.607 12.9258C227.056 11.9818 228.61 11.5098 230.271 11.5098ZM243.698 24.7422L246.945 20.6895L255.1 11.998H261.716L250.852 23.5947L262.399 39H255.661L246.994 27.1592L243.845 29.7471V39H238.156V1.01172H243.845V19.542L243.552 24.7422H243.698ZM262.668 11.998H268.918L274.411 27.3057C275.241 29.4867 275.795 31.5374 276.071 33.458H276.267C276.413 32.5628 276.682 31.4805 277.072 30.2109C277.463 28.9251 279.53 22.8542 283.273 11.998H289.475L277.927 42.5889C275.827 48.2041 272.328 51.0117 267.429 51.0117C266.159 51.0117 264.922 50.8734 263.718 50.5967V46.0557C264.58 46.251 265.565 46.3486 266.672 46.3486C269.439 46.3486 271.384 44.7454 272.507 41.5391L273.508 39L262.668 11.998ZM299.533 33.751C298.752 36.7783 297.32 40.6764 295.236 45.4453H291.013C292.136 41.0508 292.974 36.9655 293.527 33.1895H299.167L299.533 33.751ZM542.478 35.9482C542.478 34.7601 542.787 33.8486 543.405 33.2139C544.024 32.5791 544.919 32.2617 546.091 32.2617C547.279 32.2617 548.182 32.5954 548.801 33.2627C549.419 33.9137 549.729 34.8089 549.729 35.9482C549.729 37.1038 549.411 38.0234 548.776 38.707C548.158 39.3743 547.263 39.708 546.091 39.708C544.919 39.708 544.024 39.3743 543.405 38.707C542.787 38.0397 542.478 37.1201 542.478 35.9482Z" fill="#E6C68A"/>
<path d="M342.697 39H336.936V22.3496C336.936 20.2826 336.545 18.7445 335.764 17.7354C334.982 16.71 333.762 16.1973 332.102 16.1973C329.888 16.1973 328.26 16.9215 327.219 18.3701C326.193 19.8024 325.681 22.195 325.681 25.5479V39H319.943V11.998H324.436L325.241 15.5381H325.534C326.283 14.2523 327.365 13.2594 328.781 12.5596C330.214 11.8597 331.784 11.5098 333.493 11.5098C337.644 11.5098 340.394 12.9258 341.745 15.7578H342.136C342.933 14.4232 344.056 13.3815 345.505 12.6328C346.953 11.8841 348.614 11.5098 350.485 11.5098C353.708 11.5098 356.052 12.3236 357.517 13.9512C358.998 15.5788 359.738 18.0609 359.738 21.3975V39H354.001V22.3496C354.001 20.2826 353.602 18.7445 352.805 17.7354C352.023 16.71 350.803 16.1973 349.143 16.1973C346.913 16.1973 345.277 16.8971 344.235 18.2969C343.21 19.6803 342.697 21.8125 342.697 24.6934V39ZM391.696 25.4502C391.696 29.861 390.565 33.3034 388.303 35.7773C386.04 38.2513 382.891 39.4883 378.854 39.4883C376.332 39.4883 374.102 38.9186 372.165 37.7793C370.228 36.64 368.739 35.0042 367.697 32.8721C366.656 30.7399 366.135 28.266 366.135 25.4502C366.135 21.0719 367.258 17.654 369.504 15.1963C371.75 12.7386 374.916 11.5098 379.001 11.5098C382.907 11.5098 386 12.7712 388.278 15.2939C390.557 17.8005 391.696 21.1859 391.696 25.4502ZM372.043 25.4502C372.043 31.6839 374.346 34.8008 378.952 34.8008C383.509 34.8008 385.788 31.6839 385.788 25.4502C385.788 19.2816 383.493 16.1973 378.903 16.1973C376.494 16.1973 374.745 16.9948 373.654 18.5898C372.58 20.1849 372.043 22.4717 372.043 25.4502ZM412.009 11.5098C413.164 11.5098 414.117 11.5911 414.865 11.7539L414.304 17.1006C413.49 16.9053 412.644 16.8076 411.765 16.8076C409.47 16.8076 407.606 17.5563 406.174 19.0537C404.758 20.5511 404.05 22.4961 404.05 24.8887V39H398.312V11.998H402.805L403.562 16.7588H403.854C404.75 15.1475 405.913 13.8698 407.346 12.9258C408.794 11.9818 410.349 11.5098 412.009 11.5098ZM431.687 39.4883C427.487 39.4883 424.2 38.2676 421.823 35.8262C419.463 33.3685 418.283 29.9912 418.283 25.6943C418.283 21.2835 419.382 17.8167 421.579 15.2939C423.776 12.7712 426.796 11.5098 430.637 11.5098C434.201 11.5098 437.017 12.5921 439.084 14.7568C441.151 16.9215 442.185 19.9001 442.185 23.6924V26.793H424.191C424.273 29.4134 424.981 31.4316 426.315 32.8477C427.65 34.2474 429.53 34.9473 431.955 34.9473C433.55 34.9473 435.031 34.8008 436.398 34.5078C437.782 34.1986 439.263 33.694 440.842 32.9941V37.6572C439.442 38.3245 438.026 38.7965 436.594 39.0732C435.161 39.3499 433.526 39.4883 431.687 39.4883ZM430.637 15.8555C428.814 15.8555 427.349 16.4333 426.242 17.5889C425.152 18.7445 424.501 20.429 424.289 22.6426H436.545C436.512 20.4128 435.975 18.7282 434.934 17.5889C433.892 16.4333 432.46 15.8555 430.637 15.8555ZM475.241 16.3438H468.649V39H462.888V16.3438H458.444V13.6582L462.888 11.9004V10.1426C462.888 6.95247 463.636 4.59245 465.134 3.0625C466.631 1.51628 468.918 0.743164 471.994 0.743164C474.012 0.743164 475.998 1.07682 477.951 1.74414L476.438 6.08984C475.021 5.63411 473.671 5.40625 472.385 5.40625C471.083 5.40625 470.131 5.81315 469.528 6.62695C468.942 7.42448 468.649 8.62891 468.649 10.2402V11.998H475.241V16.3438ZM498.898 39L498.093 35.46H497.8C497.002 36.7132 495.863 37.6979 494.382 38.4141C492.917 39.1302 491.241 39.4883 489.353 39.4883C486.081 39.4883 483.64 38.6745 482.028 37.0469C480.417 35.4193 479.611 32.9535 479.611 29.6494V11.998H485.397V28.6484C485.397 30.7155 485.821 32.2699 486.667 33.3115C487.513 34.3369 488.84 34.8496 490.646 34.8496C493.055 34.8496 494.821 34.1335 495.944 32.7012C497.084 31.2526 497.653 28.8356 497.653 25.4502V11.998H503.415V39H498.898ZM535.349 39H529.587V22.3984C529.587 20.3151 529.164 18.7607 528.317 17.7354C527.487 16.71 526.161 16.1973 524.338 16.1973C521.913 16.1973 520.139 16.9134 519.016 18.3457C517.893 19.778 517.331 22.1787 517.331 25.5479V39H511.594V11.998H516.086L516.892 15.5381H517.185C517.998 14.2523 519.154 13.2594 520.651 12.5596C522.149 11.8597 523.809 11.5098 525.632 11.5098C532.11 11.5098 535.349 14.8057 535.349 21.3975V39Z" fill="#E6A1B6"/>
</svg>
