<svg width="503" height="45" viewBox="0 0 503 45" fill="none" xmlns="http://www.w3.org/2000/svg">
<path d="M-0.000781059 36L5.59922 0.749998H9.74922L18.7992 25.2L35.7492 0.749998H40.1992L34.5992 36H29.8992L33.9992 10.15L19.7992 30.6H16.6492L8.79922 10.05L4.69922 36H-0.000781059ZM53.8156 36.45C50.3823 36.45 47.6823 35.4833 45.7156 33.55C43.7823 31.5833 42.8156 28.9333 42.8156 25.6C42.8156 22.7667 43.3823 20.2667 44.5156 18.1C45.649 15.9333 47.199 14.2333 49.1656 13C51.1656 11.7667 53.4323 11.15 55.9656 11.15C59.399 11.15 62.0823 12.1333 64.0156 14.1C65.9823 16.0333 66.9656 18.6667 66.9656 22C66.9656 24.8333 66.399 27.35 65.2656 29.55C64.1323 31.7167 62.5656 33.4167 60.5656 34.65C58.599 35.85 56.349 36.45 53.8156 36.45ZM53.9156 32.55C55.6156 32.55 57.049 32.0667 58.2156 31.1C59.4156 30.1333 60.3156 28.85 60.9156 27.25C61.549 25.6167 61.8656 23.8167 61.8656 21.85C61.8656 19.65 61.3323 17.9833 60.2656 16.85C59.199 15.6833 57.7323 15.1 55.8656 15.1C54.1656 15.1 52.7156 15.5833 51.5156 16.55C50.349 17.4833 49.449 18.7667 48.8156 20.4C48.2156 22 47.9156 23.8 47.9156 25.8C47.9156 28 48.449 29.6833 49.5156 30.85C50.5823 31.9833 52.049 32.55 53.9156 32.55ZM70.6371 36L74.5371 11.6H79.4371L78.7871 15.7C79.5538 14.4 80.5871 13.35 81.8871 12.55C83.2204 11.75 84.8371 11.2833 86.7371 11.15L88.7371 11L88.6871 15.3L85.3371 15.65C82.8704 15.85 81.0871 16.5667 79.9871 17.8C78.8871 19.0333 78.1704 20.7333 77.8371 22.9L75.7371 36H70.6371ZM101.098 36.45C97.4977 36.45 94.6477 35.4833 92.5477 33.55C90.4477 31.5833 89.3977 28.9167 89.3977 25.55C89.3977 22.8833 89.9477 20.4667 91.0477 18.3C92.1477 16.1 93.681 14.3667 95.6477 13.1C97.6477 11.8 99.9643 11.15 102.598 11.15C105.198 11.15 107.248 11.75 108.748 12.95C110.281 14.1167 111.331 15.6667 111.898 17.6C112.464 19.5 112.598 21.55 112.298 23.75L112.148 24.95H94.1977C94.031 27.2833 94.581 29.1333 95.8477 30.5C97.1477 31.8667 99.0143 32.55 101.448 32.55C102.948 32.55 104.348 32.3333 105.648 31.9C106.981 31.4667 108.181 30.7833 109.248 29.85L110.648 33.25C109.514 34.2833 108.081 35.0833 106.348 35.65C104.648 36.1833 102.898 36.45 101.098 36.45ZM102.548 14.7C100.981 14.7 99.6477 15.05 98.5477 15.75C97.481 16.4167 96.631 17.3 95.9977 18.4C95.3643 19.4667 94.9143 20.6167 94.6477 21.85H108.348C108.514 19.85 108.148 18.1667 107.248 16.8C106.348 15.4 104.781 14.7 102.548 14.7ZM144.938 45L146.938 32.2C146.038 33.5333 144.871 34.5833 143.438 35.35C142.038 36.0833 140.438 36.45 138.638 36.45C135.838 36.45 133.588 35.5167 131.888 33.65C130.188 31.75 129.338 29.2 129.338 26C129.338 23.2667 129.821 20.7833 130.788 18.55C131.755 16.2833 133.155 14.4833 134.988 13.15C136.821 11.8167 139.005 11.15 141.538 11.15C143.371 11.15 145.005 11.5833 146.438 12.45C147.905 13.2833 148.955 14.5667 149.588 16.3L150.338 11.6H155.288L149.988 45H144.938ZM140.488 32.55C142.155 32.55 143.571 32.0667 144.738 31.1C145.938 30.1333 146.838 28.85 147.438 27.25C148.071 25.6167 148.388 23.8167 148.388 21.85C148.388 19.65 147.855 17.9833 146.788 16.85C145.721 15.6833 144.255 15.1 142.388 15.1C140.688 15.1 139.238 15.5833 138.038 16.55C136.871 17.4833 135.971 18.7667 135.338 20.4C134.738 22 134.438 23.8 134.438 25.8C134.438 28 134.971 29.6833 136.038 30.85C137.105 31.9833 138.588 32.55 140.488 32.55ZM167.129 36.45C164.529 36.45 162.529 35.6333 161.129 34C159.762 32.3333 159.362 29.75 159.929 26.25L162.229 11.6H167.279L164.979 26.25C164.312 30.35 165.629 32.4 168.929 32.4C171.062 32.4 172.779 31.7167 174.079 30.35C175.379 28.95 176.212 27.0833 176.579 24.75L178.629 11.6H183.679L179.829 36H174.929L175.529 32C174.662 33.4333 173.496 34.5333 172.029 35.3C170.596 36.0667 168.962 36.45 167.129 36.45ZM191.346 5.95L192.196 0.699998H198.046L197.196 5.95H191.346ZM186.946 36L190.796 11.6H195.846L191.996 36H186.946ZM199.104 36L203.004 11.6H207.904L207.254 15.7C208.021 14.4 209.054 13.35 210.354 12.55C211.687 11.75 213.304 11.2833 215.204 11.15L217.204 11L217.154 15.3L213.804 15.65C211.337 15.85 209.554 16.5667 208.454 17.8C207.354 19.0333 206.637 20.7333 206.304 22.9L204.204 36H199.104ZM217.806 36L223.356 0.749998H228.406L225.006 22.25H225.106L237.256 11.6H243.456L230.006 23.6L240.706 36H234.756L224.706 24.65H224.606L222.856 36H217.806ZM243.857 45L249.657 35.35L243.207 11.6H248.357L252.907 30.15L263.507 11.6H268.907L249.057 45H243.857ZM267.443 42.15L265.543 40.1C266.409 39.3333 267.043 38.6333 267.443 38C267.876 37.3667 268.193 36.7 268.393 36H265.643L266.593 30.05H272.543L271.843 34.6C271.609 36.1 271.193 37.4333 270.593 38.6C269.993 39.7667 268.943 40.95 267.443 42.15ZM495.135 36L496.085 30.05H502.035L501.135 36H495.135Z" fill="#E6C68A"/>
<path d="M291.343 36L295.243 11.6H300.143L299.493 15.65C300.426 14.15 301.576 13.0333 302.943 12.3C304.309 11.5333 305.793 11.15 307.393 11.15C310.959 11.15 313.209 12.8167 314.143 16.15C315.009 14.55 316.176 13.3167 317.643 12.45C319.109 11.5833 320.826 11.15 322.793 11.15C325.359 11.15 327.293 11.9667 328.593 13.6C329.926 15.2333 330.326 17.8 329.793 21.3L327.493 36H322.443L324.743 21.2C325.376 17.2 324.143 15.2 321.043 15.2C319.176 15.2 317.626 15.8833 316.393 17.25C315.193 18.5833 314.393 20.45 313.993 22.85L311.893 36H306.843L309.243 21.2C309.843 17.2 308.609 15.2 305.543 15.2C303.676 15.2 302.126 15.8833 300.893 17.25C299.693 18.5833 298.893 20.45 298.493 22.85L296.393 36H291.343ZM346.003 36.45C342.57 36.45 339.87 35.4833 337.903 33.55C335.97 31.5833 335.003 28.9333 335.003 25.6C335.003 22.7667 335.57 20.2667 336.703 18.1C337.836 15.9333 339.386 14.2333 341.353 13C343.353 11.7667 345.62 11.15 348.153 11.15C351.586 11.15 354.27 12.1333 356.203 14.1C358.17 16.0333 359.153 18.6667 359.153 22C359.153 24.8333 358.586 27.35 357.453 29.55C356.32 31.7167 354.753 33.4167 352.753 34.65C350.786 35.85 348.536 36.45 346.003 36.45ZM346.103 32.55C347.803 32.55 349.236 32.0667 350.403 31.1C351.603 30.1333 352.503 28.85 353.103 27.25C353.736 25.6167 354.053 23.8167 354.053 21.85C354.053 19.65 353.52 17.9833 352.453 16.85C351.386 15.6833 349.92 15.1 348.053 15.1C346.353 15.1 344.903 15.5833 343.703 16.55C342.536 17.4833 341.636 18.7667 341.003 20.4C340.403 22 340.103 23.8 340.103 25.8C340.103 28 340.636 29.6833 341.703 30.85C342.77 31.9833 344.236 32.55 346.103 32.55ZM362.825 36L366.725 11.6H371.625L370.975 15.7C371.741 14.4 372.775 13.35 374.075 12.55C375.408 11.75 377.025 11.2833 378.925 11.15L380.925 11L380.875 15.3L377.525 15.65C375.058 15.85 373.275 16.5667 372.175 17.8C371.075 19.0333 370.358 20.7333 370.025 22.9L367.925 36H362.825ZM393.285 36.45C389.685 36.45 386.835 35.4833 384.735 33.55C382.635 31.5833 381.585 28.9167 381.585 25.55C381.585 22.8833 382.135 20.4667 383.235 18.3C384.335 16.1 385.868 14.3667 387.835 13.1C389.835 11.8 392.152 11.15 394.785 11.15C397.385 11.15 399.435 11.75 400.935 12.95C402.468 14.1167 403.518 15.6667 404.085 17.6C404.652 19.5 404.785 21.55 404.485 23.75L404.335 24.95H386.385C386.218 27.2833 386.768 29.1333 388.035 30.5C389.335 31.8667 391.202 32.55 393.635 32.55C395.135 32.55 396.535 32.3333 397.835 31.9C399.168 31.4667 400.368 30.7833 401.435 29.85L402.835 33.25C401.702 34.2833 400.268 35.0833 398.535 35.65C396.835 36.1833 395.085 36.45 393.285 36.45ZM394.735 14.7C393.168 14.7 391.835 15.05 390.735 15.75C389.668 16.4167 388.818 17.3 388.185 18.4C387.552 19.4667 387.102 20.6167 386.835 21.85H400.535C400.702 19.85 400.335 18.1667 399.435 16.8C398.535 15.4 396.968 14.7 394.735 14.7ZM422.625 36L425.875 15.5H421.175L421.775 11.6H426.475L426.725 10.05C427.159 7.25 428.275 5.03333 430.075 3.4C431.909 1.73333 434.559 0.833332 438.025 0.699998L440.725 0.549997L440.675 4.35L438.175 4.5C436.209 4.63333 434.709 5.15 433.675 6.05C432.675 6.95 432.042 8.28333 431.775 10.05L431.525 11.6H438.325L437.675 15.5H430.925L427.675 36H422.625ZM447.109 36.45C444.509 36.45 442.509 35.6333 441.109 34C439.743 32.3333 439.343 29.75 439.909 26.25L442.209 11.6H447.259L444.959 26.25C444.293 30.35 445.609 32.4 448.909 32.4C451.043 32.4 452.759 31.7167 454.059 30.35C455.359 28.95 456.193 27.0833 456.559 24.75L458.609 11.6H463.659L459.809 36H454.909L455.509 32C454.643 33.4333 453.476 34.5333 452.009 35.3C450.576 36.0667 448.943 36.45 447.109 36.45ZM466.926 36L470.826 11.6H475.726L475.076 15.7C475.976 14.2333 477.16 13.1167 478.626 12.35C480.093 11.55 481.793 11.15 483.726 11.15C486.393 11.15 488.41 11.9833 489.776 13.65C491.176 15.2833 491.61 17.8333 491.076 21.3L488.776 36H483.726L486.026 21.4C486.693 17.2667 485.326 15.2 481.926 15.2C479.693 15.2 477.91 15.9 476.576 17.3C475.276 18.6667 474.443 20.5167 474.076 22.85L471.976 36H466.926Z" fill="#E6A1B6"/>
</svg>
